<svg width="18" height="18" viewBox="0 0 18 18" fill="none" xmlns="http://www.w3.org/2000/svg">
<path d="M17.7072 0.292849C17.3167 -0.0976164 16.6836 -0.0976164 16.2932 0.292849L8.99999 7.58604L1.70683 0.292849C1.31637 -0.0976164 0.683306 -0.0976164 0.29285 0.292849C-0.0976166 0.683305 -0.0976166 1.31637 0.29285 1.70683L7.58602 9.00001L0.29287 16.2931C-0.0975966 16.6836 -0.0975966 17.3166 0.29287 17.7072C0.683326 18.0976 1.31639 18.0976 1.70685 17.7072L8.99999 10.414L16.2932 17.7072C16.6836 18.0976 17.3167 18.0976 17.7072 17.7072C18.0976 17.3166 18.0976 16.6836 17.7072 16.2932L10.414 9.00001L17.7072 1.70683C18.0976 1.31637 18.0976 0.683305 17.7072 0.292849Z" fill="#0F0F0F"/>
</svg>
