<svg xmlns="http://www.w3.org/2000/svg" viewBox="0 0 37 44" fill="none">
<path d="M13.001 39.3351C13.4497 41.9516 15.7013 43.8504 18.3549 43.8504C21.0091 43.8504 23.2614 41.9516 23.7101 39.3351L23.7375 39.1758H12.9736L13.001 39.3351Z" fill="#7B7B7B"/>
<path d="M36.6715 31.8693C36.2323 31.43 35.7848 31.0585 35.3519 30.6989C33.5312 29.1869 31.9585 27.8812 31.9585 22.4597V18.1594C31.9585 11.8359 27.5156 6.28725 21.3682 4.89606C21.6146 4.41285 21.7396 3.90497 21.7396 3.38347C21.7396 1.51799 20.2215 0 18.3553 0C16.4897 0 14.9719 1.51799 14.9719 3.38347C14.9719 3.90532 15.0966 4.41311 15.3432 4.89606C9.19557 6.28725 4.7529 11.8359 4.7529 18.1594V22.4597C4.7529 27.8812 3.18025 29.187 1.35949 30.6989C0.926659 31.0584 0.479094 31.43 0.0399244 31.8693L0 31.9093V36.1757H36.7113V31.9093L36.6715 31.8693Z" fill="#7B7B7B"/>
</svg>